name analog
datacolumns 19
datarows 85
range 0.6275000000000001 0.6695
endheader
time	ground_force_vx	ground_force_vy	ground_force_vz	ground_force_px	ground_force_py	ground_force_pz	l_ground_force_vx	l_ground_force_vy	l_ground_force_vz	l_ground_force_px	l_ground_force_py	l_ground_force_pz	ground_torque_x	ground_torque_y	ground_torque_z	l_ground_torque_x	l_ground_torque_y	l_ground_torque_z
0.6275000000000001	-0.0	-0.0	-0.0	-9.27789306640625	-1.169150471687317	-695.6402587890625	-0.0	-0.0	-0.0	-0.0	-0.0	-0.0	-0.0	-0.0	-0.0	-0.0	-0.0	-0.0
0.628	-0.0	-0.0	-0.0	-9.22023105621338	-0.8965573906898499	-692.8974609375	-0.0	-0.0	-0.0	-0.0	-0.0	-0.0	-0.0	-0.0	-0.0	-0.0	-0.0	-0.0
0.6285000000000001	-0.0	-0.0	-0.0	-8.22854995727539	-1.1534041166305542	-695.0790405273438	-0.0	-0.0	-0.0	-0.0	-0.0	-0.0	-0.0	-0.0	-0.0	-0.0	-0.0	-0.0
0.629	-0.0	-0.0	-0.0	-7.347262859344482	-2.0805134773254395	-697.714599609375	-0.0	-0.0	-0.0	-0.0	-0.0	-0.0	-0.0	-0.0	-0.0	-0.0	-0.0	-0.0
0.6295000000000001	-0.0	-0.0	-0.0	-7.110040187835693	-2.133774280548096	-696.7815551757812	-0.0	-0.0	-0.0	-0.0	-0.0	-0.0	-0.0	-0.0	-0.0	-0.0	-0.0	-0.0
0.63	-0.0	-0.0	-0.0	-6.333946228027344	-2.239044666290283	-696.534912109375	-0.0	-0.0	-0.0	-0.0	-0.0	-0.0	-0.0	-0.0	-0.0	-0.0	-0.0	-0.0
0.6305000000000001	-0.0	-0.0	-0.0	-5.782378673553467	-2.6521921157836914	-696.9315795898438	-0.0	-0.0	-0.0	-0.0	-0.0	-0.0	-0.0	-0.0	-0.0	-0.0	-0.0	-0.0
0.631	-0.0	-0.0	-0.0	-5.514634132385254	-2.490183591842652	-699.6710815429688	-0.0	-0.0	-0.0	-0.0	-0.0	-0.0	-0.0	-0.0	-0.0	-0.0	-0.0	-0.0
0.6315000000000001	-0.0	-0.0	-0.0	-4.571713447570801	-2.390052556991577	-698.5682373046875	-0.0	-0.0	-0.0	-0.0	-0.0	-0.0	-0.0	-0.0	-0.0	-0.0	-0.0	-0.0
0.632	-0.0	-0.0	-0.0	-3.936326742172241	-2.423102140426636	-700.3339233398438	-0.0	-0.0	-0.0	-0.0	-0.0	-0.0	-0.0	-0.0	-0.0	-0.0	-0.0	-0.0
0.6325000000000001	-0.0	-0.0	-0.0	-3.9196927547454834	-2.3229551315307617	-702.342529296875	-0.0	-0.0	-0.0	-0.0	-0.0	-0.0	-0.0	-0.0	-0.0	-0.0	-0.0	-0.0
0.633	-0.0	-0.0	-0.0	-3.1447503566741943	-2.523604393005371	-703.4901123046875	-0.0	-0.0	-0.0	-0.0	-0.0	-0.0	-0.0	-0.0	-0.0	-0.0	-0.0	-0.0
0.6335000000000001	-0.0	-0.0	-0.0	-2.7101151943206787	-2.478766441345215	-702.0101928710938	-0.0	-0.0	-0.0	-0.0	-0.0	-0.0	-0.0	-0.0	-0.0	-0.0	-0.0	-0.0
0.634	-0.0	-0.0	-0.0	-2.877420425415039	-2.685243844985962	-701.4827270507812	-0.0	-0.0	-0.0	-0.0	-0.0	-0.0	-0.0	-0.0	-0.0	-0.0	-0.0	-0.0
0.6345000000000001	-0.0	-0.0	-0.0	-3.145155429840088	-2.840789318084717	-705.1649780273438	-0.0	-0.0	-0.0	-0.0	-0.0	-0.0	-0.0	-0.0	-0.0	-0.0	-0.0	-0.0
0.635	-0.0	-0.0	-0.0	-3.0879604816436768	-3.231612205505371	-702.474853515625	-0.0	-0.0	-0.0	-0.0	-0.0	-0.0	-0.0	-0.0	-0.0	-0.0	-0.0	-0.0
0.6355000000000001	-0.0	-0.0	-0.0	-3.562648057937622	-4.1602935791015625	-702.9652099609375	-0.0	-0.0	-0.0	-0.0	-0.0	-0.0	-0.0	-0.0	-0.0	-0.0	-0.0	-0.0
0.636	-0.0	-0.0	-0.0	-3.997078657150269	-5.045675277709961	-702.520751953125	-0.0	-0.0	-0.0	-0.0	-0.0	-0.0	-0.0	-0.0	-0.0	-0.0	-0.0	-0.0
0.6365000000000001	-0.0	-0.0	-0.0	-4.532228469848633	-4.557311534881592	-705.584228515625	-0.0	-0.0	-0.0	-0.0	-0.0	-0.0	-0.0	-0.0	-0.0	-0.0	-0.0	-0.0
0.637	-0.0	-0.0	-0.0	-5.329136371612549	-5.039355278015137	-706.2901000976562	-0.0	-0.0	-0.0	-0.0	-0.0	-0.0	-0.0	-0.0	-0.0	-0.0	-0.0	-0.0
0.6375000000000001	-0.0	-0.0	-0.0	-5.073205947875977	-4.896280765533447	-704.3809204101562	-0.0	-0.0	-0.0	-0.0	-0.0	-0.0	-0.0	-0.0	-0.0	-0.0	-0.0	-0.0
0.638	-0.0	-0.0	-0.0	-5.400308609008789	-4.991302490234375	-704.6409912109375	-0.0	-0.0	-0.0	-0.0	-0.0	-0.0	-0.0	-0.0	-0.0	-0.0	-0.0	-0.0
0.6385000000000001	-0.0	-0.0	-0.0	-4.900607109069824	-4.688470840454102	-706.07763671875	-0.0	-0.0	-0.0	-0.0	-0.0	-0.0	-0.0	-0.0	-0.0	-0.0	-0.0	-0.0
0.639	-0.0	-0.0	-0.0	-4.799341678619385	-5.633224964141846	-708.17333984375	-0.0	-0.0	-0.0	-0.0	-0.0	-0.0	-0.0	-0.0	-0.0	-0.0	-0.0	-0.0
0.6395000000000001	-0.0	-0.0	-0.0	-4.4605255126953125	-5.6272735595703125	-707.3955688476562	-0.0	-0.0	-0.0	-0.0	-0.0	-0.0	-0.0	-0.0	-0.0	-0.0	-0.0	-0.0
0.64	-0.0	-0.0	-0.0	-4.401676654815674	-6.850907325744629	-707.74853515625	-0.0	-0.0	-0.0	-0.0	-0.0	-0.0	-0.0	-0.0	-0.0	-0.0	-0.0	-0.0
0.6405	-0.0	-0.0	-0.0	-3.943592548370361	-7.486953735351562	-707.7484130859375	-0.0	-0.0	-0.0	-0.0	-0.0	-0.0	-0.0	-0.0	-0.0	-0.0	-0.0	-0.0
0.641	-0.0	-0.0	-0.0	-3.657630920410156	-8.046258926391602	-708.3818359375	-0.0	-0.0	-0.0	-0.0	-0.0	-0.0	-0.0	-0.0	-0.0	-0.0	-0.0	-0.0
0.6415	-0.0	-0.0	-0.0	-4.180546283721924	-8.627143859863281	-707.2373657226562	-0.0	-0.0	-0.0	-0.0	-0.0	-0.0	-0.0	-0.0	-0.0	-0.0	-0.0	-0.0
0.642	-0.0	-0.0	-0.0	-4.365103721618652	-8.740984916687012	-707.4686279296875	-0.0	-0.0	-0.0	-0.0	-0.0	-0.0	-0.0	-0.0	-0.0	-0.0	-0.0	-0.0
0.6425	-0.0	-0.0	-0.0	-4.340127468109131	-8.8301420211792	-705.4237670898438	-0.0	-0.0	-0.0	-0.0	-0.0	-0.0	-0.0	-0.0	-0.0	-0.0	-0.0	-0.0
0.643	-0.0	-0.0	-0.0	-4.626396179199219	-10.19983959197998	-705.2754516601562	-0.0	-0.0	-0.0	-0.0	-0.0	-0.0	-0.0	-0.0	-0.0	-0.0	-0.0	-0.0
0.6435	-0.0	-0.0	-0.0	-4.192893981933594	-9.963683128356934	-705.45361328125	-0.0	-0.0	-0.0	-0.0	-0.0	-0.0	-0.0	-0.0	-0.0	-0.0	-0.0	-0.0
0.644	-0.0	-0.0	-0.0	-4.027151107788086	-9.98260498046875	-702.0966186523438	-0.0	-0.0	-0.0	-0.0	-0.0	-0.0	-0.0	-0.0	-0.0	-0.0	-0.0	-0.0
0.6445	-0.0	-0.0	-0.0	-4.071800231933594	-10.746553421020508	-698.5648803710938	-0.0	-0.0	-0.0	-0.0	-0.0	-0.0	-0.0	-0.0	-0.0	-0.0	-0.0	-0.0
0.645	-0.0	-0.0	-0.0	-4.173650741577148	-10.319900512695312	-698.1351318359375	-0.0	-0.0	-0.0	-0.0	-0.0	-0.0	-0.0	-0.0	-0.0	-0.0	-0.0	-0.0
0.6455	-0.0	-0.0	-0.0	-3.963888168334961	-10.77834701538086	-694.4537353515625	-0.0	-0.0	-0.0	-0.0	-0.0	-0.0	-0.0	-0.0	-0.0	-0.0	-0.0	-0.0
0.646	-0.0	-0.0	-0.0	-2.8741588592529297	-10.86097240447998	-693.870361328125	-0.0	-0.0	-0.0	-0.0	-0.0	-0.0	-0.0	-0.0	-0.0	-0.0	-0.0	-0.0
0.6465	-0.0	-0.0	-0.0	-2.339009046554565	-12.15881633758545	-692.4569091796875	-0.0	-0.0	-0.0	-0.0	-0.0	-0.0	-0.0	-0.0	-0.0	-0.0	-0.0	-0.0
0.647	-0.0	-0.0	-0.0	-1.8734207153320312	-12.847865104675291	-691.4744873046875	-0.0	-0.0	-0.0	-0.0	-0.0	-0.0	-0.0	-0.0	-0.0	-0.0	-0.0	-0.0
0.6475	-0.0	-0.0	-0.0	-1.6752727031707764	-13.69980239868164	-691.905517578125	-0.0	-0.0	-0.0	-0.0	-0.0	-0.0	-0.0	-0.0	-0.0	-0.0	-0.0	-0.0
0.648	-0.0	-0.0	-0.0	-1.9031109809875488	-13.541213989257812	-692.8605346679688	-0.0	-0.0	-0.0	-0.0	-0.0	-0.0	-0.0	-0.0	-0.0	-0.0	-0.0	-0.0
0.6485	-0.0	-0.0	-0.0	-1.9626312255859373	-13.835147857666016	-694.0775146484375	-0.0	-0.0	-0.0	-0.0	-0.0	-0.0	-0.0	-0.0	-0.0	-0.0	-0.0	-0.0
0.649	-0.0	-0.0	-0.0	-2.210231304168701	-13.937698364257812	-694.9259643554688	-0.0	-0.0	-0.0	-0.0	-0.0	-0.0	-0.0	-0.0	-0.0	-0.0	-0.0	-0.0
0.6495	-0.0	-0.0	-0.0	-2.243692398071289	-14.577133178710938	-696.6910400390625	-0.0	-0.0	-0.0	-0.0	-0.0	-0.0	-0.0	-0.0	-0.0	-0.0	-0.0	-0.0
0.65	-0.0	-0.0	-0.0	-2.2789580821990967	-13.732828140258787	-696.71142578125	-0.0	-0.0	-0.0	-0.0	-0.0	-0.0	-0.0	-0.0	-0.0	-0.0	-0.0	-0.0
0.6505	-0.0	-0.0	-0.0	-1.5640287399291992	-13.287201881408691	-697.5035400390625	-0.0	-0.0	-0.0	-0.0	-0.0	-0.0	-0.0	-0.0	-0.0	-0.0	-0.0	-0.0
0.651	-0.0	-0.0	-0.0	-0.8989213705062866	-12.676947593688965	-697.9915161132812	-0.0	-0.0	-0.0	-0.0	-0.0	-0.0	-0.0	-0.0	-0.0	-0.0	-0.0	-0.0
0.6515	-0.0	-0.0	-0.0	-0.7891865968704224	-11.92977809906006	-697.2857666015625	-0.0	-0.0	-0.0	-0.0	-0.0	-0.0	-0.0	-0.0	-0.0	-0.0	-0.0	-0.0
0.652	-0.0	-0.0	-0.0	0.233231246471405	-12.04635238647461	-697.0955200195312	-0.0	-0.0	-0.0	-0.0	-0.0	-0.0	-0.0	-0.0	-0.0	-0.0	-0.0	-0.0
0.6525	-0.0	-0.0	-0.0	0.5214275121688843	-11.82669734954834	-695.1402587890625	-0.0	-0.0	-0.0	-0.0	-0.0	-0.0	-0.0	-0.0	-0.0	-0.0	-0.0	-0.0
0.653	-0.0	-0.0	-0.0	0.6592508554458618	-11.134350776672363	-695.7645263671875	-0.0	-0.0	-0.0	-0.0	-0.0	-0.0	-0.0	-0.0	-0.0	-0.0	-0.0	-0.0
0.6535	-0.0	-0.0	-0.0	1.2893059253692627	-10.249996185302734	-692.9943237304688	-0.0	-0.0	-0.0	-0.0	-0.0	-0.0	-0.0	-0.0	-0.0	-0.0	-0.0	-0.0
0.654	-0.0	-0.0	-0.0	1.4273681640625	-9.31862449645996	-693.0422973632812	-0.0	-0.0	-0.0	-0.0	-0.0	-0.0	-0.0	-0.0	-0.0	-0.0	-0.0	-0.0
0.6545	-0.0	-0.0	-0.0	1.6808936595916748	-8.852096557617188	-689.008056640625	-0.0	-0.0	-0.0	-0.0	-0.0	-0.0	-0.0	-0.0	-0.0	-0.0	-0.0	-0.0
0.655	-0.0	-0.0	-0.0	1.2702192068099976	-8.624396324157715	-687.9220581054688	-0.0	-0.0	-0.0	-0.0	-0.0	-0.0	-0.0	-0.0	-0.0	-0.0	-0.0	-0.0
0.6555	-0.0	-0.0	-0.0	0.9884321689605712	-8.068205833435059	-689.7603759765625	-0.0	-0.0	-0.0	-0.0	-0.0	-0.0	-0.0	-0.0	-0.0	-0.0	-0.0	-0.0
0.656	-0.0	-0.0	-0.0	0.8777965307235718	-7.576084136962891	-688.842529296875	-0.0	-0.0	-0.0	-0.0	-0.0	-0.0	-0.0	-0.0	-0.0	-0.0	-0.0	-0.0
0.6565	-0.0	-0.0	-0.0	0.1395543813705444	-7.137617588043213	-688.7293701171875	-0.0	-0.0	-0.0	-0.0	-0.0	-0.0	-0.0	-0.0	-0.0	-0.0	-0.0	-0.0
0.657	-0.0	-0.0	-0.0	0.0892105102539062	-6.610073089599609	-691.115966796875	-0.0	-0.0	-0.0	-0.0	-0.0	-0.0	-0.0	-0.0	-0.0	-0.0	-0.0	-0.0
0.6575	-0.0	-0.0	-0.0	-0.3880065679550171	-6.178994655609131	-692.1177368164062	-0.0	-0.0	-0.0	-0.0	-0.0	-0.0	-0.0	-0.0	-0.0	-0.0	-0.0	-0.0
0.658	-0.0	-0.0	-0.0	0.2003013789653778	-6.068154335021973	-693.883056640625	-0.0	-0.0	-0.0	-0.0	-0.0	-0.0	-0.0	-0.0	-0.0	-0.0	-0.0	-0.0
0.6585	-0.0	-0.0	-0.0	0.6990450620651245	-6.44070291519165	-696.8585205078125	-0.0	-0.0	-0.0	-0.0	-0.0	-0.0	-0.0	-0.0	-0.0	-0.0	-0.0	-0.0
0.659	-0.0	-0.0	-0.0	0.6539024114608765	-6.164699077606201	-696.3251953125	-0.0	-0.0	-0.0	-0.0	-0.0	-0.0	-0.0	-0.0	-0.0	-0.0	-0.0	-0.0
0.6595	-0.0	-0.0	-0.0	1.3011831045150757	-6.81085205078125	-698.1195678710938	-0.0	-0.0	-0.0	-0.0	-0.0	-0.0	-0.0	-0.0	-0.0	-0.0	-0.0	-0.0
0.66	-0.0	-0.0	-0.0	1.6727367639541626	-7.12301778793335	-697.3241577148438	-0.0	-0.0	-0.0	-0.0	-0.0	-0.0	-0.0	-0.0	-0.0	-0.0	-0.0	-0.0
0.6605	-0.0	-0.0	-0.0	1.3605337142944336	-6.974527359008789	-698.5014038085938	-0.0	-0.0	-0.0	-0.0	-0.0	-0.0	-0.0	-0.0	-0.0	-0.0	-0.0	-0.0
0.661	-0.0	-0.0	-0.0	1.5165786743164062	-6.98213005065918	-698.3257446289062	-0.0	-0.0	-0.0	-0.0	-0.0	-0.0	-0.0	-0.0	-0.0	-0.0	-0.0	-0.0
0.6615	-0.0	-0.0	-0.0	1.4198484420776367	-7.44187593460083	-698.2664794921875	-0.0	-0.0	-0.0	-0.0	-0.0	-0.0	-0.0	-0.0	-0.0	-0.0	-0.0	-0.0
0.662	-0.0	-0.0	-0.0	0.3492859005928039	-6.610748291015625	-698.3506469726562	-0.0	-0.0	-0.0	-0.0	-0.0	-0.0	-0.0	-0.0	-0.0	-0.0	-0.0	-0.0
0.6625	-0.0	-0.0	-0.0	-0.7877069711685181	-6.1575846672058105	-694.9154052734375	-0.0	-0.0	-0.0	-0.0	-0.0	-0.0	-0.0	-0.0	-0.0	-0.0	-0.0	-0.0
0.663	-0.0	-0.0	-0.0	-2.6686837673187256	-5.177187919616699	-694.7049560546875	-0.0	-0.0	-0.0	-0.0	-0.0	-0.0	-0.0	-0.0	-0.0	-0.0	-0.0	-0.0
0.6635	-0.0	-0.0	-0.0	-4.406923294067383	-4.285909652709961	-695.2899780273438	-0.0	-0.0	-0.0	-0.0	-0.0	-0.0	-0.0	-0.0	-0.0	-0.0	-0.0	-0.0
0.664	-0.0	-0.0	-0.0	-5.531051635742188	-3.580592632293701	-694.5221557617188	-0.0	-0.0	-0.0	-0.0	-0.0	-0.0	-0.0	-0.0	-0.0	-0.0	-0.0	-0.0
0.6645	-0.0	-0.0	-0.0	-6.760383605957031	-3.158193588256836	-695.05810546875	-0.0	-0.0	-0.0	-0.0	-0.0	-0.0	-0.0	-0.0	-0.0	-0.0	-0.0	-0.0
0.665	-0.0	-0.0	-0.0	-7.404472351074219	-3.1040608882904053	-694.152099609375	-0.0	-0.0	-0.0	-0.0	-0.0	-0.0	-0.0	-0.0	-0.0	-0.0	-0.0	-0.0
0.6655	-0.0	-0.0	-0.0	-6.690788269042969	-3.088407039642334	-694.674072265625	-0.0	-0.0	-0.0	-0.0	-0.0	-0.0	-0.0	-0.0	-0.0	-0.0	-0.0	-0.0
0.666	-0.0	-0.0	-0.0	-5.39963436126709	-2.909995555877685	-697.4373779296875	-0.0	-0.0	-0.0	-0.0	-0.0	-0.0	-0.0	-0.0	-0.0	-0.0	-0.0	-0.0
0.6665	-0.0	-0.0	-0.0	-4.182280540466309	-2.340948343276977	-698.2366943359375	-0.0	-0.0	-0.0	-0.0	-0.0	-0.0	-0.0	-0.0	-0.0	-0.0	-0.0	-0.0
0.667	-0.0	-0.0	-0.0	-2.9597415924072266	-2.713363647460937	-700.3338012695312	-0.0	-0.0	-0.0	-0.0	-0.0	-0.0	-0.0	-0.0	-0.0	-0.0	-0.0	-0.0
0.6675	-0.0	-0.0	-0.0	-1.6375296115875244	-2.844244956970215	-697.5303955078125	-0.0	-0.0	-0.0	-0.0	-0.0	-0.0	-0.0	-0.0	-0.0	-0.0	-0.0	-0.0
0.668	-0.0	-0.0	-0.0	-1.3381576538085938	-2.4558823108673096	-697.7510375976562	-0.0	-0.0	-0.0	-0.0	-0.0	-0.0	-0.0	-0.0	-0.0	-0.0	-0.0	-0.0
0.6685	-0.0	-0.0	-0.0	-1.1277421712875366	-2.1551125049591064	-698.4633178710938	-0.0	-0.0	-0.0	-0.0	-0.0	-0.0	-0.0	-0.0	-0.0	-0.0	-0.0	-0.0
0.669	-0.0	-0.0	-0.0	-1.9144132137298584	-1.6204054355621338	-695.5385131835938	-0.0	-0.0	-0.0	-0.0	-0.0	-0.0	-0.0	-0.0	-0.0	-0.0	-0.0	-0.0
0.6695	-0.0	-0.0	-0.0	-3.6173152923583984	-0.907415807247162	-696.7601318359375	-0.0	-0.0	-0.0	-0.0	-0.0	-0.0	-0.0	-0.0	-0.0	-0.0	-0.0	-0.0
